<svg width="80" height="80" viewBox="0 0 80 80" fill="none" xmlns="http://www.w3.org/2000/svg">
<path d="M40.0034 30.0001C37.3512 30.0001 34.8076 31.0536 32.9323 32.929C31.0569 34.8044 30.0034 37.3479 30.0034 40.0001C30.0034 42.6522 31.0569 45.1958 32.9323 47.0711C34.8076 48.9465 37.3512 50.0001 40.0034 50.0001C42.6555 50.0001 45.1991 48.9465 47.0744 47.0711C48.9498 45.1958 50.0034 42.6522 50.0034 40.0001C50.0034 37.3479 48.9498 34.8044 47.0744 32.929C45.1991 31.0536 42.6555 30.0001 40.0034 30.0001ZM40.0034 23.3334C44.4236 23.3334 48.6629 25.0894 51.7885 28.215C54.9141 31.3406 56.67 35.5798 56.67 40.0001C56.67 44.4204 54.9141 48.6596 51.7885 51.7852C48.6629 54.9108 44.4236 56.6667 40.0034 56.6667C35.5831 56.6667 31.3438 54.9108 28.2182 51.7852C25.0926 48.6596 23.3367 44.4204 23.3367 40.0001C23.3367 35.5798 25.0926 31.3406 28.2182 28.215C31.3438 25.0894 35.5831 23.3334 40.0034 23.3334ZM61.67 22.5001C61.67 23.6052 61.231 24.665 60.4496 25.4464C59.6682 26.2278 58.6084 26.6667 57.5033 26.6667C56.3983 26.6667 55.3385 26.2278 54.5571 25.4464C53.7757 24.665 53.3367 23.6052 53.3367 22.5001C53.3367 21.395 53.7757 20.3352 54.5571 19.5538C55.3385 18.7724 56.3983 18.3334 57.5033 18.3334C58.6084 18.3334 59.6682 18.7724 60.4496 19.5538C61.231 20.3352 61.67 21.395 61.67 22.5001ZM40.0034 13.3334C31.7567 13.3334 30.41 13.3567 26.5734 13.5267C23.96 13.6501 22.2067 14.0001 20.58 14.6334C19.2195 15.1346 17.9891 15.9355 16.98 16.9767C15.9376 17.9855 15.1356 19.2159 14.6334 20.5767C14 22.2101 13.65 23.9601 13.53 26.5701C13.3567 30.2501 13.3334 31.5367 13.3334 40.0001C13.3334 48.2501 13.3567 49.5934 13.5267 53.4301C13.65 56.0401 14 57.7967 14.63 59.4201C15.1967 60.8701 15.8634 61.9134 16.97 63.0201C18.0934 64.1401 19.1367 64.8101 20.57 65.3634C22.2167 66.0001 23.97 66.3534 26.57 66.4734C30.25 66.6467 31.5367 66.6667 40 66.6667C48.25 66.6667 49.5933 66.6434 53.43 66.4734C56.0367 66.3501 57.79 66.0001 59.42 65.3701C60.7806 64.8688 62.0109 64.068 63.02 63.0267C64.1434 61.9067 64.8134 60.8634 65.3667 59.4267C66 57.7867 66.3534 56.0334 66.4734 53.4267C66.6467 49.7501 66.6667 48.4601 66.6667 40.0001C66.6667 31.7534 66.6433 30.4067 66.4734 26.5701C66.35 23.9634 65.9967 22.2034 65.3667 20.5767C64.8655 19.2162 64.0646 17.9858 63.0233 16.9767C62.0146 15.9343 60.7842 15.1323 59.4234 14.6301C57.79 13.9967 56.0367 13.6467 53.43 13.5267C49.7533 13.3534 48.4667 13.3334 40 13.3334M40 6.66675C49.0567 6.66675 50.1867 6.70008 53.7434 6.86675C57.29 7.03341 59.71 7.59008 61.8334 8.41675C64.0333 9.26342 65.8867 10.4101 67.74 12.2601C69.4357 13.9259 70.7473 15.9417 71.5834 18.1667C72.4067 20.2901 72.9667 22.7101 73.1334 26.2601C73.29 29.8134 73.3334 30.9434 73.3334 40.0001C73.3334 49.0567 73.3 50.1867 73.1334 53.7401C72.9667 57.2934 72.4067 59.7067 71.5834 61.8334C70.7473 64.0585 69.4357 66.0743 67.74 67.7401C66.0742 69.4357 64.0584 70.7474 61.8334 71.5834C59.71 72.4067 57.29 72.9668 53.7434 73.1334C50.1867 73.2901 49.0567 73.3334 40 73.3334C30.9434 73.3334 29.8134 73.3001 26.2567 73.1334C22.71 72.9668 20.2934 72.4067 18.1667 71.5834C15.9416 70.7474 13.9258 69.4357 12.26 67.7401C10.5644 66.0743 9.25274 64.0585 8.41669 61.8334C7.59002 59.7101 7.03335 57.2901 6.86669 53.7401C6.70669 50.1867 6.66669 49.0567 6.66669 40.0001C6.66669 30.9434 6.70002 29.8134 6.86669 26.2601C7.03335 22.7067 7.59002 20.2934 8.41669 18.1667C9.25274 15.9417 10.5644 13.9259 12.26 12.2601C13.9258 10.5644 15.9416 9.2528 18.1667 8.41675C20.29 7.59008 22.7067 7.03341 26.2567 6.86675C29.8167 6.71008 30.9467 6.66675 40.0034 6.66675" fill="white"/>
</svg>
