<svg width="80" height="80" viewBox="0 0 80 80" fill="none" xmlns="http://www.w3.org/2000/svg">
<path d="M7.5 40C7.5 57.95 22.05 72.5 40 72.5C57.95 72.5 72.5 57.95 72.5 40C72.5 22.05 57.95 7.5 40 7.5C22.05 7.5 7.5 22.05 7.5 40ZM24.1633 28.8967C27.66 23.7067 34.13 20.31 43.43 21.63C48.79 22.3967 52.6967 25.0933 55.1533 28.7467C57.5733 32.3467 58.5067 36.74 58.2533 40.9033C58 45.06 56.5533 49.2 53.9367 52.2767C51.27 55.41 47.4033 57.41 42.6433 57.06C39.8433 56.86 37.7 55.6933 36.1667 53.9833C34.9167 59.0833 33.6267 64.4433 32.5667 68.9167C32.4907 69.2362 32.3526 69.5377 32.1601 69.8038C31.9677 70.07 31.7247 70.2957 31.445 70.4679C31.1654 70.6402 30.8545 70.7556 30.5302 70.8078C30.2059 70.8599 29.8745 70.8476 29.555 70.7717C29.2354 70.6957 28.934 70.5576 28.6678 70.3651C28.4017 70.1727 28.176 69.9297 28.0038 69.65C27.8315 69.3704 27.716 69.0595 27.6639 68.7352C27.6118 68.4109 27.6241 68.0795 27.7 67.76C29.4393 60.4318 31.2171 53.1128 33.0333 45.8033C32.7167 42.4633 33.1567 39.1533 33.6933 37.2633C33.9059 36.4296 34.2636 35.6398 34.75 34.93C34.9767 34.63 35.37 34.1733 35.9767 33.87C36.4134 33.6495 36.9008 33.5488 37.3892 33.578C37.8775 33.6073 38.3494 33.7656 38.7567 34.0367C39.5467 34.57 39.84 35.34 39.9567 35.7367C40.0867 36.1933 40.1233 36.6533 40.1233 37.0533C40.1233 37.8633 39.9733 38.82 39.6933 39.8867C39.2467 41.6067 38.7033 43.7433 38.1067 46.1267C38.35 47.7933 38.8333 49.2233 39.5633 50.24C40.2867 51.2433 41.3167 51.9533 43.0067 52.0733C46.0067 52.2933 48.38 51.0967 50.1267 49.04C51.9267 46.9233 53.06 43.8733 53.26 40.6033C53.46 37.34 52.71 34.0733 51.0033 31.5367C49.3367 29.0533 46.68 27.1433 42.7267 26.5833C35.1233 25.5033 30.6267 28.25 28.3067 31.69C25.8533 35.33 25.6667 39.9367 27.0833 42.83C27.3484 43.4214 27.3734 44.0926 27.1532 44.7021C26.9329 45.3117 26.4845 45.8118 25.9026 46.0971C25.3207 46.3825 24.6508 46.4307 24.034 46.2316C23.4173 46.0325 22.9019 45.6017 22.5967 45.03C20.32 40.3867 20.7967 33.8833 24.1633 28.8967Z" fill="white"/>
</svg>
