<svg width="80" height="80" viewBox="0 0 80 80" fill="none" xmlns="http://www.w3.org/2000/svg">
<path d="M76.6667 32.3667C76.8315 27.5955 75.7881 22.8601 73.6333 18.6C72.1714 16.852 70.1424 15.6724 67.9 15.2667C58.6252 14.4228 49.3118 14.0779 40 14.2334C30.7222 14.0767 21.4426 14.4105 12.2 15.2334C10.3727 15.5657 8.68174 16.4228 7.33334 17.7C4.33334 20.4667 4.00001 25.2 3.66667 29.2C3.18012 36.3918 3.18012 43.6082 3.66667 50.8C3.76435 53.0513 4.09955 55.2859 4.66667 57.4667C5.06859 59.1502 5.88175 60.7078 7.03334 62C8.3909 63.3449 10.1213 64.2507 12 64.6C19.1862 65.4892 26.4274 65.8568 33.6667 65.7C45.3333 65.8667 55.5667 65.7 67.6667 64.7667C69.5902 64.4348 71.3682 63.5284 72.7667 62.1667C73.6989 61.2323 74.3958 60.0898 74.8 58.8334C75.9909 55.1751 76.5764 51.347 76.5333 47.5C76.6667 45.6334 76.6667 34.3667 76.6667 32.3667ZM32.4667 49.5V28.8667L52.2 39.2334C46.6667 42.3 39.3667 45.7667 32.4667 49.5Z" fill="white"/>
</svg>
