<svg width="80" height="80" viewBox="0 0 80 80" fill="none" xmlns="http://www.w3.org/2000/svg">
<path fill-rule="evenodd" clip-rule="evenodd" d="M52.4167 73.3334V47.5167H61.0834L62.38 37.4567H52.4134V31.0334C52.4134 28.1201 53.2234 26.1334 57.4034 26.1334H62.73V17.1334C60.1505 16.8563 57.5577 16.7227 54.9634 16.7334C47.2834 16.7334 42.0267 21.4234 42.0267 30.0334V37.4567H33.3334V47.5167H42.0234V73.3334H10.3467C8.31335 73.3334 6.66669 71.6867 6.66669 69.6534V10.3467C6.66669 8.31341 8.31335 6.66675 10.3467 6.66675H69.6534C71.6867 6.66675 73.3334 8.31341 73.3334 10.3467V69.6534C73.3334 71.6867 71.6867 73.3334 69.6534 73.3334H52.4167Z" fill="white"/>
</svg>
